<?xml version="1.0" encoding="UTF-8" standalone="no"?>
<!-- Created with Inkscape (http://www.inkscape.org/) -->

<svg
   version="1.1"
   id="svg2"
   width="1301.0667"
   height="219.86667"
   viewBox="0 0 1301.0667 219.86667"
   sodipodi:docname="dynamic-yield.ai"
   xmlns:inkscape="http://www.inkscape.org/namespaces/inkscape"
   xmlns:sodipodi="http://sodipodi.sourceforge.net/DTD/sodipodi-0.dtd"
   xmlns="http://www.w3.org/2000/svg"
   xmlns:svg="http://www.w3.org/2000/svg">
  <defs
     id="defs6">
    <clipPath
       clipPathUnits="userSpaceOnUse"
       id="clipPath16">
      <path
         d="M 0,164.9 H 975.8 V 0 H 0 Z"
         id="path14" />
    </clipPath>
  </defs>
  <sodipodi:namedview
     id="namedview4"
     pagecolor="#ffffff"
     bordercolor="#000000"
     borderopacity="0.25"
     inkscape:showpageshadow="2"
     inkscape:pageopacity="0.0"
     inkscape:pagecheckerboard="0"
     inkscape:deskcolor="#d1d1d1" />
  <g
     id="g8"
     inkscape:groupmode="layer"
     inkscape:label="dynamic-yield"
     transform="matrix(1.3333333,0,0,-1.3333333,0,219.86667)">
    <g
       id="g10">
      <g
         id="g12"
         clip-path="url(#clipPath16)">
        <g
           id="g18"
           transform="translate(346.4,99.5)">
          <path
             d="m 0,0 c -2.5,0 -4.8,-0.5 -6.7,-1.4 -2,-0.9 -3.7,-2.1 -5,-3.7 -1.4,-1.5 -2.4,-3.3 -3.2,-5.4 -0.7,-2.1 -1.1,-4.3 -1.1,-6.6 0,-2.3 0.4,-4.5 1.1,-6.6 0.7,-2.1 1.8,-3.9 3.2,-5.4 1.4,-1.5 3,-2.8 5,-3.7 2,-0.9 4.2,-1.4 6.7,-1.4 2.4,0 4.6,0.4 6.5,1.3 2,0.9 3.6,2.1 5,3.6 1.4,1.5 2.5,3.3 3.3,5.4 0.8,2.1 1.2,4.3 1.2,6.8 0,2.5 -0.4,4.7 -1.2,6.8 -0.8,2.1 -1.9,3.9 -3.3,5.4 -1.4,1.5 -3.1,2.7 -5,3.6 C 4.6,-0.4 2.4,0 0,0 m -1.4,10.9 c 3.8,0 7.1,-0.7 9.8,-2.1 2.7,-1.4 5,-3.3 6.9,-5.7 V 36.3 H 26.9 V -43.6 H 15.3 v 6.4 c -1.8,-2.4 -4.1,-4.3 -6.9,-5.7 -2.7,-1.4 -6,-2.1 -9.8,-2.1 -3.7,0 -7.2,0.7 -10.4,2.1 -3.2,1.4 -6,3.3 -8.4,5.8 -2.4,2.5 -4.3,5.4 -5.7,8.8 -1.4,3.4 -2.1,7.2 -2.1,11.2 0,4 0.7,7.8 2.1,11.2 1.4,3.4 3.3,6.4 5.7,8.8 2.4,2.5 5.2,4.4 8.4,5.8 3.2,1.5 6.7,2.2 10.4,2.2"
             style="fill:#000000;fill-opacity:1;fill-rule:nonzero;stroke:none"
             id="path20" />
        </g>
        <g
           id="g22"
           transform="translate(395.1,33.4)">
          <path
             d="m 0,0 h -12.9 l 19,33.4 -23.6,42.2 h 13 L 12.6,45.1 29.1,75.6 h 12.8 z"
             style="fill:#000000;fill-opacity:1;fill-rule:nonzero;stroke:none"
             id="path24" />
        </g>
        <g
           id="g26"
           transform="translate(469.1,110.4)">
          <path
             d="m 0,0 c 3.1,0 6,-0.5 8.7,-1.6 2.6,-1 4.9,-2.5 6.9,-4.4 1.9,-1.9 3.4,-4.1 4.5,-6.7 1.1,-2.6 1.6,-5.4 1.6,-8.5 V -54.5 H 10.1 v 29.6 c 0,4.5 -1.1,7.9 -3.2,10.3 -2.2,2.4 -5.2,3.6 -9.1,3.6 -1.9,0 -3.7,-0.3 -5.3,-0.9 -1.7,-0.6 -3.1,-1.5 -4.4,-2.7 -1.2,-1.2 -2.2,-2.7 -3,-4.4 -0.7,-1.8 -1.1,-3.8 -1.1,-6 v -29.5 h -11.6 v 53.1 h 11.5 v -6.5 c 1.1,1.6 2.3,2.8 3.6,3.9 1.3,1 2.7,1.8 4.1,2.4 1.4,0.6 2.9,1 4.4,1.2 1.2,0.3 2.7,0.4 4,0.4"
             style="fill:#000000;fill-opacity:1;fill-rule:nonzero;stroke:none"
             id="path28" />
        </g>
        <g
           id="g30"
           transform="translate(526.9,99.5)">
          <path
             d="m 0,0 c -2.5,0 -4.8,-0.5 -6.7,-1.4 -2,-0.9 -3.7,-2.1 -5,-3.7 -1.4,-1.5 -2.4,-3.3 -3.2,-5.4 -0.7,-2.1 -1.1,-4.3 -1.1,-6.6 0,-2.3 0.4,-4.5 1.1,-6.6 0.7,-2.1 1.8,-3.9 3.2,-5.4 1.4,-1.5 3,-2.8 5,-3.7 2,-0.9 4.2,-1.4 6.7,-1.4 2.4,0 4.6,0.4 6.5,1.3 2,0.9 3.6,2.1 5,3.6 1.4,1.5 2.5,3.3 3.3,5.4 0.8,2.1 1.2,4.3 1.2,6.8 0,2.5 -0.4,4.7 -1.2,6.8 -0.8,2.1 -1.9,3.9 -3.3,5.4 -1.4,1.5 -3.1,2.7 -5,3.6 C 4.6,-0.4 2.4,0 0,0 M 26.9,-43.6 H 15.3 v 6.4 c -1.8,-2.4 -4.1,-4.3 -6.9,-5.7 -2.7,-1.4 -6,-2.1 -9.8,-2.1 -3.7,0 -7.2,0.7 -10.4,2.1 -3.2,1.4 -6,3.3 -8.4,5.8 -2.4,2.5 -4.3,5.4 -5.7,8.8 -1.4,3.4 -2.1,7.2 -2.1,11.2 0,4 0.7,7.8 2.1,11.2 1.4,3.4 3.3,6.4 5.7,8.8 2.4,2.5 5.2,4.4 8.4,5.8 3.2,1.4 6.7,2.1 10.4,2.1 3.8,0 7.1,-0.7 9.8,-2.1 2.7,-1.4 5,-3.3 6.9,-5.7 v 6.4 h 11.6 z"
             style="fill:#000000;fill-opacity:1;fill-rule:nonzero;stroke:none"
             id="path32" />
        </g>
        <g
           id="g34"
           transform="translate(632.1,110.4)">
          <path
             d="m 0,0 c 3.1,0 6,-0.5 8.7,-1.6 2.6,-1 4.9,-2.5 6.9,-4.4 1.9,-1.9 3.4,-4.1 4.5,-6.7 1.1,-2.6 1.6,-5.4 1.6,-8.5 V -54.5 H 9.9 v 29.6 c 0,4.5 -1.1,7.9 -3.2,10.3 -2.2,2.4 -5.2,3.6 -9.1,3.6 -1.9,0 -3.7,-0.3 -5.3,-0.9 -1.7,-0.6 -3.1,-1.5 -4.4,-2.7 -1.2,-1.2 -2.2,-2.7 -3,-4.4 -0.7,-1.8 -1.1,-3.8 -1.1,-6 v -29.5 h -11.6 v 29.6 c 0,4.5 -1.1,7.9 -3.2,10.3 -2.2,2.4 -5.2,3.6 -9.1,3.6 -1.9,0 -3.7,-0.3 -5.3,-0.9 -1.7,-0.6 -3.1,-1.5 -4.4,-2.7 -1.2,-1.2 -2.2,-2.7 -3,-4.4 -0.7,-1.8 -1.1,-3.8 -1.1,-6 v -29.5 h -11.6 v 53.1 h 11.4 v -6.5 c 1.1,1.6 2.3,2.8 3.6,3.9 1.3,1 2.7,1.8 4.1,2.4 1.4,0.6 2.9,1 4.4,1.2 1.5,0.2 2.9,0.4 4.2,0.4 4.1,0 7.7,-0.8 10.8,-2.5 3.2,-1.7 5.7,-4 7.5,-7 1.1,1.9 2.5,3.4 4,4.7 1.6,1.2 3.2,2.2 4.9,2.9 1.7,0.7 3.5,1.2 5.3,1.5 C -3.5,-0.1 -1.7,0 0,0"
             style="fill:#000000;fill-opacity:1;fill-rule:nonzero;stroke:none"
             id="path36" />
        </g>
        <path
           d="M 677.4,55.9 H 665.8 V 109 h 11.6 z m -5.9,79.7 c 1.1,0 2.2,-0.2 3.2,-0.6 1,-0.4 1.9,-1 2.6,-1.7 0.7,-0.7 1.3,-1.6 1.7,-2.6 0.4,-1 0.6,-2.1 0.6,-3.2 0,-1.1 -0.2,-2.2 -0.6,-3.2 -0.4,-1 -1,-1.9 -1.7,-2.6 -0.7,-0.7 -1.6,-1.3 -2.6,-1.7 -1,-0.4 -2.1,-0.6 -3.2,-0.6 -1.1,0 -2.2,0.2 -3.2,0.6 -1,0.4 -1.9,1 -2.6,1.7 -0.7,0.7 -1.3,1.6 -1.7,2.6 -0.4,1 -0.6,2.1 -0.6,3.2 0,1.1 0.2,2.2 0.6,3.2 0.4,1 1,1.9 1.7,2.6 0.7,0.7 1.6,1.3 2.6,1.7 1,0.4 2.1,0.6 3.2,0.6"
           style="fill:#000000;fill-opacity:1;fill-rule:nonzero;stroke:none"
           id="path38" />
        <g
           id="g40"
           transform="translate(714.2,110.4)">
          <path
             d="m 0,0 c 4,0 7.7,-0.7 11.1,-2.1 3.4,-1.4 6.3,-3.5 8.7,-6.4 l -7.4,-7.9 c -1.9,1.8 -3.8,3.1 -5.9,4.1 -2,0.9 -4.3,1.4 -6.9,1.4 -2.2,0 -4.3,-0.4 -6.2,-1.2 -1.9,-0.8 -3.6,-2 -5,-3.5 -1.4,-1.5 -2.5,-3.3 -3.3,-5.4 -0.8,-2.1 -1.2,-4.4 -1.2,-6.9 0,-2.5 0.4,-4.8 1.2,-6.9 0.8,-2.1 1.9,-3.9 3.3,-5.4 1.4,-1.5 3.1,-2.7 5,-3.5 1.9,-0.8 4,-1.2 6.2,-1.2 2.6,0 4.9,0.5 7.2,1.6 2.3,1.1 4.2,2.4 5.9,4 l 7.2,-8 c -2.4,-2.8 -5.4,-4.9 -8.8,-6.4 C 7.7,-55.1 4,-55.8 0,-55.8 c -4.2,0 -8,0.7 -11.5,2.1 -3.4,1.4 -6.4,3.4 -8.8,5.9 -2.4,2.5 -4.3,5.4 -5.7,8.8 -1.3,3.4 -2,7.1 -2,11.1 0,4 0.7,7.7 2,11.1 1.3,3.4 3.2,6.4 5.7,8.8 2.4,2.5 5.4,4.5 8.8,5.9 C -8.1,-0.7 -4.2,0 0,0"
             style="fill:#000000;fill-opacity:1;fill-rule:nonzero;stroke:none"
             id="path42" />
        </g>
        <g
           id="g44"
           transform="translate(773.4,33.4)">
          <path
             d="m 0,0 h -12.9 l 19,33.4 -23.5,42.2 h 13 L 12.7,45.1 29.2,75.6 H 42 Z"
             style="fill:#000000;fill-opacity:1;fill-rule:nonzero;stroke:none"
             id="path46" />
        </g>
        <path
           d="M 831.2,55.9 H 819.6 V 109 h 11.6 z m -5.9,79.7 c 1.1,0 2.2,-0.2 3.2,-0.6 1,-0.4 1.9,-1 2.6,-1.7 0.7,-0.7 1.3,-1.6 1.7,-2.6 0.4,-1 0.6,-2.1 0.6,-3.2 0,-1.1 -0.2,-2.2 -0.6,-3.2 -0.4,-1 -1,-1.9 -1.7,-2.6 -0.7,-0.7 -1.6,-1.3 -2.6,-1.7 -1,-0.4 -2.1,-0.6 -3.2,-0.6 -1.1,0 -2.2,0.2 -3.2,0.6 -1,0.4 -1.9,1 -2.6,1.7 -0.7,0.7 -1.3,1.6 -1.7,2.6 -0.4,1 -0.6,2.1 -0.6,3.2 0,1.1 0.2,2.2 0.6,3.2 0.4,1 1,1.9 1.7,2.6 0.7,0.7 1.6,1.3 2.6,1.7 1,0.4 2.1,0.6 3.2,0.6"
           style="fill:#000000;fill-opacity:1;fill-rule:nonzero;stroke:none"
           id="path48" />
        <g
           id="g50"
           transform="translate(866.3,100.1)">
          <path
             d="m 0,0 c -2.1,0 -3.9,-0.3 -5.5,-0.9 -1.6,-0.6 -3,-1.5 -4.2,-2.7 -1.2,-1.2 -2.1,-2.6 -2.9,-4.2 -0.7,-1.6 -1.3,-3.4 -1.6,-5.3 H 13.4 C 12.8,-9 11.3,-5.7 9,-3.4 6.7,-1.2 3.7,0 0,0 m 0.2,10.3 c 3.7,0 7.1,-0.7 10.2,-2 3.1,-1.4 5.7,-3.3 7.9,-5.7 2.2,-2.5 3.9,-5.4 5.2,-8.8 1.2,-3.4 1.9,-7.2 1.9,-11.3 0,-0.7 0,-1.5 -0.1,-2.2 0,-0.7 -0.1,-1.4 -0.2,-2.1 h -39.3 c 0.4,-2.4 1.1,-4.5 2.1,-6.2 1,-1.7 2.2,-3.1 3.6,-4.2 1.4,-1.1 3,-1.9 4.7,-2.4 1.7,-0.5 3.5,-0.8 5.4,-0.8 2.7,0 5.3,0.5 8,1.5 2.7,1 5.1,2.4 7.3,4.1 l 5.8,-8.3 C 19.4,-40.9 16,-42.8 12.4,-43.9 8.8,-45 4.9,-45.6 0.9,-45.6 c -4,0 -7.7,0.7 -11,2 -3.3,1.3 -6.2,3.2 -8.6,5.7 -2.4,2.4 -4.3,5.4 -5.6,8.8 -1.3,3.4 -2,7.3 -2,11.5 0,4.1 0.6,7.9 1.9,11.4 1.3,3.4 3.1,6.4 5.4,8.8 2.3,2.5 5.1,4.4 8.3,5.7 3.4,1.3 7,2 10.9,2"
             style="fill:#000000;fill-opacity:1;fill-rule:nonzero;stroke:none"
             id="path52" />
        </g>
        <path
           d="m 912.1,55.9 h -11.6 v 79.9 h 11.6 z"
           style="fill:#000000;fill-opacity:1;fill-rule:nonzero;stroke:none"
           id="path54" />
        <g
           id="g56"
           transform="translate(948.9,99.5)">
          <path
             d="m 0,0 c -2.5,0 -4.8,-0.5 -6.7,-1.4 -2,-0.9 -3.7,-2.1 -5,-3.7 -1.4,-1.5 -2.4,-3.3 -3.2,-5.4 -0.7,-2.1 -1.1,-4.3 -1.1,-6.6 0,-2.3 0.4,-4.5 1.1,-6.6 0.7,-2.1 1.8,-3.9 3.2,-5.4 1.4,-1.5 3,-2.8 5,-3.7 2,-0.9 4.2,-1.4 6.7,-1.4 2.4,0 4.6,0.4 6.5,1.3 2,0.9 3.6,2.1 5,3.6 1.4,1.5 2.5,3.3 3.3,5.4 0.8,2.1 1.2,4.3 1.2,6.8 0,2.5 -0.4,4.7 -1.2,6.8 -0.8,2.1 -1.9,3.9 -3.3,5.4 -1.4,1.5 -3.1,2.7 -5,3.6 C 4.5,-0.4 2.4,0 0,0 m -1.4,10.9 c 3.8,0 7.1,-0.7 9.8,-2.1 2.7,-1.4 5,-3.3 6.9,-5.7 V 36.3 H 26.9 V -43.6 H 15.3 v 6.4 c -1.8,-2.4 -4.1,-4.3 -6.9,-5.7 -2.7,-1.4 -6,-2.1 -9.8,-2.1 -3.7,0 -7.2,0.7 -10.4,2.1 -3.2,1.4 -6,3.3 -8.4,5.8 -2.4,2.5 -4.3,5.4 -5.7,8.8 -1.4,3.4 -2.1,7.2 -2.1,11.2 0,4 0.7,7.8 2.1,11.2 1.4,3.4 3.3,6.4 5.7,8.8 2.4,2.5 5.2,4.4 8.4,5.8 3.2,1.4 6.6,2.2 10.4,2.2"
             style="fill:#000000;fill-opacity:1;fill-rule:nonzero;stroke:none"
             id="path58" />
        </g>
        <path
           d="m 97.3,147.3 h 72.2 V 17.6 H 97.3 Z"
           style="fill:#ff5f00;fill-opacity:1;fill-rule:nonzero;stroke:none"
           id="path60" />
        <g
           id="g62"
           transform="translate(101.9,82.4)">
          <path
             d="m 0,0 c 0,26.3 12.3,49.7 31.5,64.8 -14,11 -31.7,17.6 -51,17.6 -45.5,0.1 -82.4,-36.8 -82.4,-82.4 0,-45.5 36.9,-82.5 82.5,-82.5 19.2,0 36.9,6.6 51,17.6 C 12.3,-49.7 0,-26.3 0,0"
             style="fill:#eb001b;fill-opacity:1;fill-rule:nonzero;stroke:none"
             id="path64" />
        </g>
        <g
           id="g66"
           transform="translate(266.8,82.4)">
          <path
             d="m 0,0 c 0,-45.5 -36.9,-82.5 -82.5,-82.5 -19.2,0 -36.9,6.6 -51,17.6 19.2,15.1 31.5,38.5 31.5,64.8 0,26.3 -12.3,49.7 -31.5,64.8 14,11 31.7,17.6 51,17.6 C -36.9,82.5 0,45.6 0,0"
             style="fill:#f79e1b;fill-opacity:1;fill-rule:nonzero;stroke:none"
             id="path68" />
        </g>
        <g
           id="g70"
           transform="translate(264.3,31.3)">
          <path
             d="m 0,0 v 3.2 h -0.8 l -1,-2.2 -1,2.2 H -3.6 V 0 H -3 v 2.4 l 0.9,-2.1 h 0.6 l 0.9,2.1 V 0 Z m -5.3,0 v 2.7 h 1.1 V 3.2 H -6.9 V 2.7 h 1.1 V 0 Z"
             style="fill:#f79e1b;fill-opacity:1;fill-rule:nonzero;stroke:none"
             id="path72" />
        </g>
      </g>
    </g>
  </g>
</svg>
