<?xml version="1.0" encoding="UTF-8"?> <svg xmlns="http://www.w3.org/2000/svg" width="1150.56" height="192" viewBox="0 0 1150.56 192"><title>google-tag-manager-logo</title><path d="M822.42,74.74q-6.06,15.18-12.11,30.36-5.16,13-10.33,26h-7.41q-11.12-28-22.22-55.88c-.19-.26-.31-.57-.63-.75-.56,0-.57.36-.41.79.44,18.55.12,37.1.23,55.8h-8.47V59.38h12.42q11.19,28.78,22.45,57.74l.63.06L819,59.36h12.6V131H822.9V84.25a50.05,50.05,0,0,0,.08-9.56c0-.33,0,.14-.17-.13C822.74,74.45,822.52,74.57,822.42,74.74Z" fill="#757575"></path><path d="M279.49,68.65l-6.59,5.79c-2-1.19-3.79-3.39-6.27-4.81-15.92-9.11-37.44.46-41.17,18.42-2.72,13.15,1.94,25.15,12.42,31.84,9.81,6.25,24.79,6.48,34.45-2.89,4.41-4.27,6.3-9.61,7.07-16H253.23c-.6-2.7-.3-5.29-.23-8.08h34.83c1.2,11.19-.75,21.34-8.94,29.66-9.11,9.25-20.41,11.58-32.67,9.48a36.26,36.26,0,0,1-29.76-29c-3.11-16.28,3.4-31.65,17-40.14s34.42-6.6,44.93,4.33C278.74,67.69,279,68.08,279.49,68.65Z" fill="#757575"></path><path d="M905.75,131.08H897.5V80h7.92c.9,2.05.05,4.18.6,6.41,1.63-1.39,2.87-3,4.52-4.24,7.54-5.54,19-5.24,25.43.82,4.15,3.94,5.45,9.06,5.49,14.54.1,10.83.06,21.66.06,32.49a5.54,5.54,0,0,1-.23,1.06h-8.15c-.71-1-.43-2-.44-3-.08-10,0-20-.25-30-.16-6.26-3-9.93-8-11.25A13.33,13.33,0,0,0,909.62,92a20.58,20.58,0,0,0-3.55,12.25c-.07,8,0,16,0,24A5.73,5.73,0,0,1,905.75,131.08Z" fill="#757575"></path><path d="M602.63,131.11h-8.88V67.77h-20V59.45h48.5v8.2H602.63Z" fill="#757575"></path><path d="M1150.56,79.63v8.82c-1.57.5-2.7-.48-3.94-.77-9-2.11-15.13,5.27-16.32,11.66-.77,4.13-.43,8.3-.47,12.46,0,6.33,0,12.66,0,19.2h-8.65V80.05h8c.7,2.18,0,4.37.47,6.61C1137.11,78.78,1144.06,76.46,1150.56,79.63Z" fill="#757575"></path><path d="M485.75,131.12h-8.27V59.39h8.27Z" fill="#757575"></path><path d="M723.74,82.45c0-.8.25-1.68-.42-2.36a23.39,23.39,0,0,0-8.09.18V86.7A16,16,0,0,1,714,85.58c-7.57-9.51-23.39-9.75-32.34-1-8.66,8.43-10.79,23.65-4.82,35,8.43,16,29.09,16,37.35,5.19a.61.61,0,0,1,1-.19,41.2,41.2,0,0,1-.14,6.55c-.91,14.3-13.7,17.22-22.39,14-4.13-1.51-6.78-4.63-8.72-8.74L676,139.71a13.83,13.83,0,0,0,3.12,6.11c5,6.12,11.67,8.53,19.4,8.52s14.79-2,20-8.34c4.11-5,5.14-11,5.2-17.08C723.86,113.43,723.76,97.94,723.74,82.45Zm-10.06,31.09a15.9,15.9,0,0,1-14.42,10.53,15.46,15.46,0,0,1-15.13-9.78,22.19,22.19,0,0,1,.44-19.08c2.77-5.73,9-9.4,15-8.89,7,.59,11.69,4.37,14.22,10.84a23.07,23.07,0,0,1,1.37,8.57A23.94,23.94,0,0,1,713.68,113.54Z" fill="#757575"></path><path d="M465,82.21c0-.72.2-1.5-.41-2.19h-8.18v6.83c-8.9-11.87-27.14-11-35.54.1-6.92,9.19-7.72,19.39-3.86,29.83,4.19,11.3,14.41,16.84,26.29,15,5.32-.82,9.49-3.61,13-7.85,1.18,10.95-1.92,18.16-9,21a18.47,18.47,0,0,1-11,.88c-5.26-1.12-8.76-4.51-11-9.47l-7.86,3.33a9.76,9.76,0,0,0,1.74,4.21c4.84,7.31,11.87,10.34,20.42,10.41,7.93.06,15-1.94,20.28-8.29,4-4.81,5.11-10.6,5.15-16.58C465,113.71,465,98,465,82.21Zm-10.47,32.3c-3,6.6-9.16,10.2-15.77,9.51a16.12,16.12,0,0,1-14.3-12.38,22.35,22.35,0,0,1-.71-6c-.1-6.59,1.67-12,6.61-15.92A15.52,15.52,0,0,1,454.08,95,21.77,21.77,0,0,1,454.48,114.51Z" fill="#757575"></path><path d="M1052.61,80.07h-8.14v6.52c-.5-.33-.67-.38-.75-.5-7.81-10.59-25.83-10.6-34.7.57-7,8.82-8.2,22.85-2.95,32.79,8.53,16.16,29.64,16.2,37.88,4.78,0,0,.26.06.39.09,1,13.23-3.46,18.61-9.69,20.87-8.62,3.14-14.81.63-21.7-8.7l-7.56,3.17a7.92,7.92,0,0,0,1.62,4.17c4.52,6.84,11,10.1,19.12,10.43,8.38.33,15.89-1.44,21.56-8.14,4.17-4.93,5.19-10.9,5.23-17.05.1-15.5,0-31,0-46.5A4.15,4.15,0,0,0,1052.61,80.07Zm-8.19,25.19c-.16,7.46-2.56,13.78-9.63,17.29-10,5-21.73-2.07-22.93-13.75-.44-4.33-.33-8.64,1.56-12.73,3-6.35,9.47-10.42,15.73-9.74a16.31,16.31,0,0,1,14.68,13.23A20.17,20.17,0,0,1,1044.42,105.26Z" fill="#757575"></path><path d="M1111.13,107.27a18.08,18.08,0,0,0,.3-2.33,35.51,35.51,0,0,0-.18-4c-1-9.41-5-17-14.14-20.72s-17.92-2.94-25.61,3.49-9.91,15-9.3,24.68c1.13,18,17.47,29,35.55,22.56,5.73-2,9.84-6.22,12.64-11.89l-7.3-3.5c-7.65,9-14.41,11.22-22.37,7.52-5.85-2.71-10.42-10.25-9.42-15.82Zm-23.83-21c7.77.11,14.44,6.24,14.41,13.41h-29.8C1072.21,92.56,1079.57,86.17,1087.3,86.28Z" fill="#757575"></path><path d="M524.17,107.24h20a16.57,16.57,0,0,0,.16-6.67C542,78.19,520.11,74.27,508,81.34c-10.28,6-14.49,17.61-12.28,30.14,2.58,14.64,14.25,22.91,29,21.06,8.53-1.06,14.66-5.66,18.87-13.44l-7.38-3.59c-7.25,9.09-14.8,11.42-22.88,7.32-5.66-2.88-10.11-10.65-8.76-15.59Zm-4-21c7.86-.06,14.91,6.34,14.59,13.43h-29.6C504.88,93.13,512.5,86.34,520.14,86.27Z" fill="#757575"></path><path d="M665.14,97.87c-.06-6.53-2.37-12.09-8-15.78-6.45-4.21-13.59-4.65-20.88-3.06a20.6,20.6,0,0,0-13.46,9,22.15,22.15,0,0,0,6.59,5c7.31-6.94,14.66-8.6,21.24-4.8a11.61,11.61,0,0,1,5.83,12.73,8.92,8.92,0,0,1-1.16-.28,35.4,35.4,0,0,0-20.59-1.47C622,101.86,616.37,116.1,624.16,126c6.71,8.56,22.16,9,30.17,1,.71-.72,1.18-1.74,2.31-2.16.55,2.19-.18,4.29.5,6.26h8C665.16,119.82,665.23,108.84,665.14,97.87Zm-25.79,27c-7.16-.77-11.37-6.67-8.82-12.72a10,10,0,0,1,7.33-5.85,25.39,25.39,0,0,1,17.48,2,10,10,0,0,1,1.4,1C656.46,118.37,647.83,125.76,639.35,124.84Z" fill="#757575"></path><path d="M885.63,96.37A16.74,16.74,0,0,0,879,83c-8.77-6.75-23.73-6.28-32.05,1-1.4,1.22-2.92,2.45-3.47,4.53,2.11,1.57,4.16,3.11,6.33,4.74,7.43-7.23,15-8.91,21.68-5,4.49,2.68,6.88,8,5.5,12.57-.46-.12-.94-.22-1.39-.38a35.4,35.4,0,0,0-20.37-1.28c-12.61,2.83-18.06,16.45-10.63,26.53,5.57,7.55,18.93,9.41,27.2,3.85a47.09,47.09,0,0,0,5.39-4.84c.64,2.28-.11,4.4.54,6.27h8C885.7,119.33,885.85,107.85,885.63,96.37ZM857,124.18c-3.45-1.2-6-3.46-6.51-7.2a8.86,8.86,0,0,1,3.73-8.74c5.29-4,18-3.36,23,1.2C876.85,119.72,866.33,127.4,857,124.18Z" fill="#757575"></path><path d="M994.46,99.57a31.94,31.94,0,0,0-.17-4.49c-.69-4.87-2.69-9.1-6.67-12.14-8.27-6.33-22.26-6.31-30.7,0a13.68,13.68,0,0,0-4.85,5.53l6.29,4.73c9.19-7.52,15.54-8.83,22.1-4.66A11.43,11.43,0,0,1,985.68,101,35.15,35.15,0,0,0,964,99.22c-6.37,1.6-11.64,4.89-13.37,11.7s-.33,12.78,5.15,17.42c6.35,5.39,17.35,5.95,24.38,1.42a26.36,26.36,0,0,0,5.65-5.2c.81,2.37,0,4.51.61,6.44h8.07C994.47,120.38,994.47,110,994.46,99.57ZM966,124.25c-4.07-1.27-6.53-4.14-6.84-8a9,9,0,0,1,5.67-9.13c7.27-2.86,14.28-1.81,21.07,1.81C985.89,119.4,975.44,127.21,966,124.25Z" fill="#757575"></path><path d="M348.32,104.07a26.24,26.24,0,0,0-33.21-25c-11.83,3.07-19.46,13.42-19.48,26.21.06,1,.11,1.85.16,2.68,1.26,20.31,21.62,30.33,38.38,21.91C344.57,124.66,348.59,115.37,348.32,104.07ZM336,117.32A17,17,0,0,1,317.26,124a18.22,18.22,0,0,1-12.82-16.68c0-.59,0-1.17,0-1.75.09-6.9,2.38-12.73,8.41-16.56a16.83,16.83,0,0,1,23.41,5.18A21.55,21.55,0,0,1,336,117.32Z" fill="#757575"></path><path d="M381.83,78.21c-15.17-.15-26.39,11.29-26.55,27.05s10.84,27.42,26,27.5S407.78,121.53,407.9,106C408,90.05,397.07,78.36,381.83,78.21Zm-1.11,46.4a16.33,16.33,0,0,1-13.38-7.54A21.35,21.35,0,0,1,368.05,93a17.32,17.32,0,0,1,18.08-6,18.1,18.1,0,0,1,12.68,15.2c.13,1.24.18,2.49.24,3.26C398.78,117.13,391.11,125,380.72,124.61Z" fill="#757575"></path><rect width="192" height="192" fill="none"></rect><polygon points="111.31 176.79 80.76 147 146.37 80 178 111 111.31 176.79" fill="#8ab4f8"></polygon><path d="M111.44,45.08,81,14,14.44,79.93a22,22,0,0,0,0,31.08L80,177l31-29L61.05,95.47Z" fill="#4285f4"></path><path d="M177.56,80.44l-66-66A22,22,0,0,0,80.45,45.55l66,66a22,22,0,1,0,31.11-31.11Z" fill="#8ab4f8"></path><circle cx="95.5" cy="162.5" r="21.5" fill="#246fdb"></circle></svg> 