<svg width="300" height="511" viewBox="0 0 2500 511" fill="none" xmlns="http://www.w3.org/2000/svg">
<g clip-path="url(#clip0_543_2909)">
<path d="M1421.14 0H1317.19V336.342C1317.19 392.278 1326.03 427.119 1345.72 453.887C1372.12 489.529 1417.71 510.623 1480.07 510.623C1501.92 510.727 1523.69 507.99 1544.86 502.476L1528.87 413.299C1514.89 415.884 1500.71 417.247 1486.49 417.372C1460.88 417.372 1443.69 410.099 1433.7 397.951C1424.92 387.404 1420.85 372.784 1420.85 348.489V198.576H1548.85V109.398H1421.14V0Z" fill="#211C1F"/>
<path d="M642.082 99.4726C521.362 99.4726 430.237 191.522 430.237 305.487C430.237 419.453 521.362 510.626 642.082 510.626C762.802 510.626 853.854 419.453 853.854 305.487C853.854 191.522 762.728 99.4726 642.082 99.4726ZM642.082 412.878C579.671 412.878 536.965 364.881 536.965 305.487C536.965 246.094 579.671 197.22 642.082 197.22C704.493 197.22 747.126 246.021 747.126 305.487C747.126 364.954 704.42 412.951 642.082 412.951V412.878Z" fill="#211C1F"/>
<path d="M1094.5 259.378C1036.92 253.171 1002.2 250.835 1002.2 221.263C1002.2 194.758 1030.62 178.403 1072.45 178.403C1118.19 178.403 1148.98 200.308 1152.17 229.514H1257.94C1252.39 147.736 1178.22 100.276 1069.26 99.4726C965.633 99.4726 895.61 151.679 895.61 230.901C895.61 313.483 969.038 333.708 1062.97 345.391C1127.67 353.13 1156.09 356.27 1156.09 388.178C1156.09 417.384 1125.3 431.988 1079.55 431.988C1029.81 431.988 995.908 407.892 992.725 372.845H886.949C890.872 458.492 968.372 510.626 1080.29 510.626C1189.25 510.626 1264.23 460.026 1264.23 380.657C1264.23 290.556 1186.88 269.527 1094.5 259.378Z" fill="#211C1F"/>
<path d="M222.143 99.5519C199.145 98.7769 176.299 103.688 155.482 113.883C134.666 124.077 116.473 139.263 102.401 158.192V108.046H0V510.402H106.127V309.969C106.127 240.228 137.8 199.545 192.763 199.545C246.22 199.545 271.086 241.792 271.086 309.969V510.626H377.284V292.161C377.284 145.674 301.254 99.5519 222.143 99.5519Z" fill="#211C1F"/>
<path d="M1780.52 99.4726C1659.78 99.4726 1568.71 191.522 1568.71 305.487C1568.71 419.453 1659.78 510.626 1780.52 510.626C1901.26 510.626 1992.33 419.453 1992.33 305.487C1992.33 191.522 1901.26 99.4726 1780.52 99.4726ZM1780.52 412.951C1718.1 412.951 1675.38 364.881 1675.38 305.487C1675.38 246.094 1718.1 197.22 1780.52 197.22C1842.94 197.22 1885.58 246.021 1885.58 305.487C1885.58 364.954 1842.94 413.024 1780.52 413.024V412.951Z" fill="#211C1F"/>
<path d="M2112.39 253.6C2056.45 194.694 2098.17 97.4025 2179.36 97.4025L2407.6 97.4025C2458.63 97.4025 2500 138.809 2500 189.887V417.957C2500 499.278 2402.68 541.011 2343.86 484.916L2218.74 365.608L2112.39 253.6Z" fill="#FF66BF"/>
<path d="M2112.39 253.6C2056.45 194.694 2098.17 97.4025 2179.36 97.4025L2407.6 97.4025C2458.63 97.4025 2500 138.809 2500 189.887V417.957C2500 499.278 2402.68 541.011 2343.86 484.916L2218.74 365.608L2112.39 253.6Z" fill="#FF66BF"/>
</g>
<defs>
<clipPath id="clip0_543_2909">
<rect width="2500" height="510.85" fill="white"/>
</clipPath>
</defs>
</svg>
